<?xml version="1.0" encoding="UTF-8" standalone="no"?>
<!-- Created with Inkscape (http://www.inkscape.org/) -->

<svg
   width="151.99323mm"
   height="226.4836mm"
   viewBox="0 0 151.99323 226.4836"
   version="1.1"
   id="svg1"
   xmlns="http://www.w3.org/2000/svg"
   xmlns:svg="http://www.w3.org/2000/svg">
  <defs
     id="defs1" />
  <g
     id="layer1"
     transform="translate(-23.233314,-23.030725)">
    <g
       id="g23"
       transform="translate(-6.0444403,-11.364851)">
      <path
         style="fill:#faa5b5"
         d="m 101.70983,259.59496 c -1.15181,-0.70631 -4.296861,-2.68406 -6.988997,-4.395 -2.692135,-1.71094 -6.144948,-3.89106 -7.672917,-4.84471 -2.388584,-1.49079 -7.175365,-4.52485 -10.31875,-6.54046 -0.509323,-0.32659 -2.979177,-1.88922 -5.488565,-3.47252 -2.509389,-1.5833 -6.497982,-4.10143 -8.863542,-5.59585 -2.36556,-1.49442 -5.313049,-3.3544 -6.549976,-4.13331 -1.236928,-0.7789 -3.796771,-2.39999 -5.688542,-3.60241 -1.891771,-1.20243 -4.927865,-3.10035 -6.746875,-4.21761 -12.496753,-7.67569 -13.492589,-8.40198 -13.989934,-10.20321 -0.30616,-1.10882 -0.377579,-0.72876 3.918874,-20.85441 0.719783,-3.37165 1.797112,-8.45198 2.394063,-11.28964 0.596952,-2.83765 1.670136,-7.83828 2.384854,-11.1125 0.714719,-3.27422 1.729797,-7.97718 2.255729,-10.45104 0.525932,-2.47385 1.1778,-5.45042 1.448594,-6.61458 0.270795,-1.16417 1.033714,-4.67651 1.695376,-7.80521 1.127324,-5.3306 2.152989,-10.06444 3.324931,-15.34583 0.274475,-1.23693 1.273948,-5.82084 2.221052,-10.18646 3.760638,-17.33446 3.202332,-15.65568 6.825569,-20.523984 1.23781,-1.663163 3.242213,-4.393152 4.454229,-6.066642 1.212017,-1.673489 2.997822,-4.114271 3.968456,-5.423958 0.970634,-1.309688 3.831324,-5.23875 6.357089,-8.73125 C 75.619143,71.314054 81.56048,63.154459 83.751019,60.19271 84.50442,59.174064 86.767941,56.078439 88.781066,53.313543 102.7694,34.101471 102.51649,34.395835 105.03494,34.395835 c 2.29276,0 3.38885,0.931247 7.0069,5.953125 1.15325,1.600729 3.24586,4.458229 4.65023,6.35 1.40438,1.891771 3.25639,4.40525 4.11557,5.585509 4.63969,6.373528 5.77963,7.935604 8.06174,11.047146 2.65208,3.615961 4.08303,5.579721 8.31708,11.413933 1.45521,2.00517 4.01952,5.504203 5.69846,7.775629 16.2747,22.017853 14.90148,19.592173 17.16687,30.323613 0.58367,2.7649 1.54546,7.22974 2.13731,9.92188 1.44596,6.57716 4.30139,19.75771 5.44533,25.13541 0.51076,2.4011 1.39526,6.50875 1.96556,9.12813 0.5703,2.61937 1.81708,8.45344 2.77063,12.96458 0.95355,4.51115 2.09847,9.86896 2.54427,11.90625 0.44579,2.03729 1.20871,5.60917 1.69536,7.9375 1.23581,5.91253 2.64598,12.4911 3.73482,17.42327 l 0.92591,4.19411 -0.41362,1.21391 c -0.59275,1.73964 -1.01001,2.09266 -6.55434,5.54533 -5.45661,3.39804 -11.3908,7.10677 -14.49469,9.05884 -1.0914,0.6864 -3.47265,2.17776 -5.29166,3.31414 -7.85309,4.906 -10.64815,6.66354 -13.82137,8.69088 -5.82627,3.72235 -15.25298,9.68555 -19.51613,12.34563 -7.8725,4.91221 -8.61485,5.38228 -10.98021,6.953 -2.90697,1.93037 -3.75188,2.30151 -5.23949,2.30151 h -1.15544 z m 5.04954,0.66629 c 0.43657,-0.17219 2.08209,-1.1454 3.65672,-2.16268 3.06404,-1.97953 8.03897,-5.14091 10.63079,-6.75548 2.63892,-1.64392 20.51357,-12.94907 22.35729,-14.14028 0.94588,-0.61113 3.13273,-1.9931 4.85965,-3.07104 1.72692,-1.07794 4.82255,-3.01444 6.87917,-4.30332 2.05661,-1.28888 4.45368,-2.78769 5.3268,-3.33068 23.14405,-14.39314 21.11155,-12.33665 19.4596,-19.68924 -0.76859,-3.42087 -1.83115,-8.36172 -3.5926,-16.70541 -0.49154,-2.32833 -1.20293,-5.66208 -1.58088,-7.40833 -0.37794,-1.74625 -1.2686,-5.91344 -1.97924,-9.26042 -1.47782,-6.96024 -4.18105,-19.65787 -5.18216,-24.34166 -0.37325,-1.74625 -0.96462,-4.42516 -1.31417,-5.95313 -0.34955,-1.52797 -1.29353,-5.87375 -2.09774,-9.65729 -0.8042,-3.78354 -1.88319,-8.78416 -2.39774,-11.1125 -0.51455,-2.32833 -1.40996,-6.49552 -1.98979,-9.26041 -2.12379,-10.12724 -1.92375,-9.64137 -6.59044,-16.007296 -10.40988,-14.200349 -13.51468,-18.444211 -18.48579,-25.267708 -3.07447,-4.220104 -7.07786,-9.696979 -8.89643,-12.170833 -4.17484,-5.679153 -10.00194,-13.644957 -12.58074,-17.198222 -1.09141,-1.503818 -2.73449,-3.685986 -3.65129,-4.849263 l -1.66691,-2.115049 -1.05042,-0.420295 c -1.43532,-0.574298 -2.56363,-0.52109 -3.81784,0.180039 l -1.05834,0.591629 -3.968745,5.34119 c -5.438028,7.318561 -9.36277,12.686576 -23.369784,31.963721 -9.244132,12.722229 -14.958097,20.546326 -18.410343,25.209167 -3.669973,4.95692 -3.201273,3.51405 -7.281564,22.41583 -0.722507,3.34698 -1.805901,8.28807 -2.407544,10.98021 -0.601642,2.69214 -1.730503,7.87135 -2.50858,11.50937 -2.580424,12.06518 -4.362614,20.31139 -5.546692,25.66459 -1.23503,5.58355 -5.503219,25.69951 -7.578777,35.71875 -0.301457,1.45521 -0.71537,3.29592 -0.919806,4.09048 -1.166295,4.5329 -1.001781,4.72864 9.417881,11.20575 2.692135,1.6735 6.204479,3.86912 7.805208,4.87915 1.600729,1.01004 4.577292,2.88738 6.614584,4.17187 2.037291,1.28449 6.085416,3.84221 8.995833,5.68381 15.552098,9.84079 18.814676,11.90314 21.960417,13.88169 1.891771,1.18984 6.058958,3.81036 9.260417,5.82336 3.201458,2.01301 6.503505,4.1208 7.337875,4.68398 2.37242,1.60134 3.6132,1.87576 5.36212,1.18595 z M 97.225189,120.13366 c -1.861737,-0.75464 -1.156156,-4.26418 1.69469,-8.42935 0.267878,-0.39138 0.984153,-1.49943 1.591721,-2.46233 0.60757,-0.9629 1.55897,-2.24282 2.11423,-2.84427 l 1.00955,-1.09354 h 1.07977 1.07978 l 0.55412,0.70445 c 3.19018,4.05566 -4.51951,15.99137 -9.123861,14.12504 z M 81.227083,80.016372 c 0,-0.304909 10.572834,-14.984196 13.325259,-18.500746 l 0.621273,-0.79375 1.691838,-0.473493 c 0.930511,-0.260422 2.049026,-0.498547 2.485588,-0.529167 l 0.793749,-0.05567 0.0741,3.542275 0.0741,3.542274 -0.470954,0.520806 c -0.581625,0.643192 -5.860458,4.142268 -7.482413,4.959721 -1.885142,0.950096 -6.819812,4.343555 -9.061979,6.231713 -1.127787,0.949724 -2.050521,1.649942 -2.050521,1.55604 z"
         id="path30" />
      <path
         style="fill:#f97692"
         d="m 96.969791,120.54783 c -2.755093,-1.20112 0.749427,-10.37657 5.645399,-14.78064 l 1.103,-0.99219 h 1.08371 1.08371 l 0.75918,0.8127 c 3.84841,4.11974 -4.59465,17.17496 -9.674999,14.96013 z m 3.454659,-0.79062 c 4.26846,-1.98762 8.12894,-10.94623 5.9246,-13.74859 l -0.55412,-0.70445 h -1.07978 -1.07977 l -1.00955,1.09354 c -0.55526,0.60145 -1.50666,1.88137 -2.11423,2.84427 -0.607568,0.9629 -1.323843,2.07095 -1.591721,2.46233 -4.172901,6.09673 -3.382263,10.32847 1.504571,8.0529 z m -30.831844,-6.43202 c -2.75946,-1.00617 -4.50069,-3.65248 -4.503631,-6.84459 l -0.0015,-1.6017 0.673221,-1.35098 c 3.843211,-7.712318 14.639689,-6.778919 14.756721,1.27578 l 0.0254,1.74849 -0.837728,1.69109 c -2.07312,4.18494 -6.487914,6.40354 -10.112512,5.08191 z M 80.16875,81.076059 c 0,-0.190625 1.089326,-1.72393 8.539395,-12.019808 l 6.030731,-8.334375 2.041499,-0.725942 c 1.122825,-0.399268 2.398687,-0.696925 2.83525,-0.661458 l 0.793745,0.06448 0.0742,3.563709 c 0.1082,5.194619 0.51628,4.748386 -9.9961,10.930682 -2.179261,1.281615 -6.958769,4.857279 -8.99313,6.727976 -0.610566,0.561445 -1.32562,0.806733 -1.32562,0.454732 z m 8.069791,-6.294936 c 1.60073,-1.073841 3.446198,-2.222468 4.101042,-2.552504 1.621955,-0.817453 6.900788,-4.316529 7.482413,-4.959721 l 0.470954,-0.520806 -0.0741,-3.542274 -0.0741,-3.542275 -0.793749,0.05567 c -0.436562,0.03062 -1.555077,0.268745 -2.485588,0.529167 l -1.691838,0.473493 -0.621273,0.79375 c -2.752425,3.51655 -13.325259,18.195837 -13.325259,18.500746 0,0.0939 0.922734,-0.606316 2.050521,-1.55604 1.127786,-0.949724 3.360208,-2.605368 4.960937,-3.679209 z"
         id="path29" />
      <path
         style="fill:#fd2f60"
         d="m 81.197168,230.86195 c -3.085356,-0.85077 -6.372307,-3.61217 -11.384428,-9.56415 -2.629484,-3.12256 -3.292579,-2.90049 8.238457,-2.75903 6.057003,0.0743 6.747151,0.18331 7.131172,1.12623 2.950799,7.24534 3.356398,10.01169 1.605056,10.94709 l -1.186532,0.63374 -1.591593,-0.0237 c -0.875376,-0.013 -2.140835,-0.17511 -2.812132,-0.36022 z M 57.414583,201.99094 c -4.684664,-0.66806 -8.238172,-2.15114 -9.398953,-3.92271 l -0.422199,-0.64436 0.711853,-1.41141 c 2.450695,-4.85908 5.198285,-8.35643 8.249403,-10.50048 l 0.859896,-0.60426 v -0.73473 c 0,-0.4041 -0.238125,-0.95023 -0.529167,-1.21362 -0.805877,-0.7293 0.682335,-3.96267 4.862634,-10.56481 0.454249,-0.71741 1.303928,-2.1855 1.888175,-3.26242 l 1.062266,-1.95802 1.378083,-0.0742 1.378082,-0.0742 0.908728,-0.69312 c 0.4998,-0.38122 1.187581,-1.03108 1.528401,-1.44413 l 0.619673,-0.75101 0.556766,1.87037 c 0.306221,1.02871 1.541903,4.966 2.745959,8.74954 3.424902,10.76217 3.966923,12.47625 5.061771,16.00729 l 1.025471,3.30729 -1.05e-4,1.7198 c -2.74e-4,4.4953 -1.29073,5.64308 -7.133963,6.34518 -3.111395,0.37386 -12.321827,0.28633 -15.352774,-0.14591 z m 45.243747,-1.43775 C 98.584584,200.004 95.197173,197.4096 90.791258,191.46424 l -2.12851,-2.87222 -1.84528,-5.59445 c -1.014904,-3.07695 -2.636543,-8.09476 -3.603643,-11.1507 -2.809258,-8.87697 -5.022825,-15.87595 -6.192296,-19.57916 -1.348251,-4.26933 -1.438457,-3.50862 0.898262,-7.57515 1.091406,-1.89935 1.984375,-3.50494 1.984375,-3.56799 0,-0.063 0.460247,-0.85585 1.02277,-1.76178 0.562523,-0.90594 1.711076,-2.89732 2.552338,-4.42529 0.841263,-1.52797 2.166954,-3.81865 2.94598,-5.0904 0.779027,-1.27175 1.416412,-2.35832 1.416412,-2.41459 0,-0.18967 6.914264,-12.47323 10.445206,-18.55647 0.760193,-1.30969 2.560778,-4.49395 4.001298,-7.07614 3.13005,-5.610755 2.35833,-5.611975 5.51818,0.009 1.44895,2.57739 3.7605,6.65069 5.13677,9.05179 2.27053,3.96126 6.54079,11.46802 9.03056,15.875 0.53438,0.94588 1.80533,3.14854 2.82432,4.89479 1.01898,1.74625 2.41224,4.18703 3.09612,5.42396 0.68388,1.23692 1.76153,3.10033 2.39478,4.14089 1.13057,1.85777 2.71586,4.65612 3.62506,6.39892 0.25322,0.48539 0.4165,1.02117 0.36284,1.19062 -0.0537,0.16946 -0.71334,2.27264 -1.46596,4.67373 -0.75261,2.4011 -1.58328,4.78235 -1.84593,5.29167 -1.7171,3.32978 -3.14476,6.06468 -3.52197,6.74687 -0.76617,1.38565 -2.99453,6.83197 -6.60351,16.13959 -0.50782,1.30968 -1.30773,3.6314 -1.77757,5.15937 -2.21865,7.2152 -6.44303,12.03448 -11.86738,13.53861 -1.84777,0.51237 -2.22365,0.5305 -4.53615,0.21875 z m -2.24896,-80.26061 c 4.8139,-2.24455 8.89175,-11.86127 6.23542,-14.70488 l -0.75918,-0.8127 h -1.08371 -1.08371 l -1.103,0.99219 c -2.10855,1.89669 -6.737787,9.80624 -7.034634,12.0194 -0.350534,2.61342 1.991576,3.8289 4.828814,2.50599 z m 37.5615,76.71326 c -2.73882,-0.90793 -5.41462,-2.82957 -5.41462,-3.88855 0,-0.29198 0.10982,-1.03009 0.24404,-1.64023 0.13422,-0.61015 0.38408,-2.00232 0.55525,-3.09373 0.17117,-1.0914 0.53867,-2.9623 0.81667,-4.15755 0.27799,-1.19525 0.61621,-2.86212 0.75158,-3.70417 0.53434,-3.32362 3.02393,-11.07805 4.16508,-12.97312 0.49616,-0.82396 1.08147,-1.87608 1.30069,-2.33806 1.75441,-3.69713 1.72496,-3.72871 9.88504,10.60519 0.82843,1.45521 2.06974,3.59105 2.75846,4.7463 3.34502,5.61088 0.016,12.96231 -7.24764,16.00492 l -1.45521,0.60956 -2.64583,0.0917 c -1.73394,0.0601 -3.01382,-0.0303 -3.71351,-0.26225 z m 16.08436,-34.61782 c -0.32518,-0.41105 -6.19974,-10.57909 -7.41638,-12.83672 l -0.89353,-1.65808 0.1727,-0.78628 c 0.095,-0.43246 0.2843,-0.85526 0.4207,-0.93957 0.13641,-0.0843 0.5013,-0.65121 0.81089,-1.2598 0.84651,-1.66411 2.63455,-3.87517 4.19504,-5.18752 l 1.39191,-1.17058 0.33029,0.4517 c 0.59498,0.81368 3.90665,16.93521 4.21984,20.54258 l 0.17228,1.98437 -0.55542,0.59532 c -0.6239,0.66872 -2.39821,0.83354 -2.84832,0.26458 z M 53.451074,159.08073 c 0.0029,-0.10914 0.117429,-0.97365 0.254549,-1.92113 0.13712,-0.94747 0.38037,-2.79294 0.540555,-4.10104 0.160185,-1.30809 0.461827,-3.74757 0.670314,-5.42106 0.208488,-1.67349 0.497843,-4.11427 0.643013,-5.42396 0.14517,-1.30969 0.405392,-3.45281 0.578271,-4.7625 0.172879,-1.30969 0.322525,-3.11705 0.332545,-4.01636 l 0.01822,-1.6351 0.417708,0.37833 c 0.591344,0.53561 2.259363,0.47939 2.834274,-0.0955 l 0.473858,-0.47385 1.907392,6.38423 c 2.236544,7.48593 2.164529,6.81464 0.915205,8.53102 -3.107156,4.26876 -4.330683,5.99565 -5.850542,8.25746 -2.583023,3.84399 -3.759085,5.19766 -3.735362,4.29948 z m 17.739393,-24.67669 c -0.165406,-0.65248 -0.469622,-1.66258 -0.676036,-2.24467 -0.206414,-0.58208 -0.92164,-2.9038 -1.589391,-5.15937 -1.249078,-4.21921 -3.58464,-11.84578 -5.450947,-17.79956 l -1.059441,-3.37977 0.603495,-0.85356 c 0.331922,-0.46946 1.44839,-1.98466 2.48104,-3.36711 1.032649,-1.38245 2.296938,-3.108853 2.809532,-3.836458 3.306855,-4.693937 5.423071,-7.622647 8.029627,-11.112499 1.630334,-2.182813 3.172823,-4.296172 3.427753,-4.696354 0.254931,-0.400183 0.599861,-0.727605 0.766513,-0.727605 0.166652,0 0.599443,-0.270625 0.961758,-0.601389 0.758349,-0.692312 5.238949,-4.266501 6.61188,-5.274319 0.509323,-0.373875 2.235729,-1.428354 3.836458,-2.343287 3.344834,-1.911815 6.87273,-4.192522 7.739486,-5.003406 l 0.595736,-0.557335 -0.0764,9.469556 -0.0764,9.469555 -3.459705,5.953125 c -1.902838,3.274219 -4.442714,7.679536 -5.644168,9.789586 -2.642563,4.641 -4.855124,8.44072 -5.867987,10.07733 -0.413153,0.66758 -0.751187,1.29198 -0.751187,1.38755 0,0.0956 -1.34808,2.4664 -2.995733,5.2685 -1.647653,2.80211 -4.340777,7.45059 -5.98472,10.32997 -1.643944,2.87938 -3.200811,5.49682 -3.459706,5.81654 l -0.470718,0.58131 z m 4.083491,-21.53352 c 1.727149,-0.78773 3.388644,-2.52275 4.43116,-4.62724 l 0.837728,-1.69109 -0.0254,-1.74849 C 80.400409,96.749001 69.603931,95.815602 65.76072,103.52792 l -0.673221,1.35098 0.0015,1.6017 c 0.0051,5.571 5.04615,8.73367 10.184983,6.38992 z m 62.198492,1.39484 c 0.0657,-0.10636 -0.001,-0.26816 -0.14938,-0.35957 -0.1479,-0.0914 -0.2689,-0.51379 -0.2689,-0.93865 v -0.77246 l -0.66146,0.30138 c -0.3638,0.16576 -0.66146,0.37752 -0.66146,0.47058 0,0.0931 -0.29766,0.16919 -0.66146,0.16919 -0.3638,0 -0.66146,-0.0884 -0.66146,-0.19647 0,-0.10806 -0.23812,-0.15062 -0.52916,-0.0946 -0.29104,0.056 -0.53099,-0.0401 -0.53322,-0.21363 -0.002,-0.19018 -0.10595,-0.15787 -0.26053,0.0813 l -0.25648,0.39688 -0.008,-0.39688 -0.008,-0.39687 -0.25648,0.39687 -0.25648,0.39688 -0.008,-0.39688 c -0.005,-0.2336 -0.0881,-0.28802 -0.20249,-0.13229 -0.27396,0.37289 -0.85585,0.45222 -0.85585,0.11668 0,-0.15411 -0.11472,-0.2093 -0.25493,-0.12265 -0.14021,0.0867 -0.46763,-0.0551 -0.7276,-0.31511 -0.25997,-0.25997 -0.65127,-0.46849 -0.86955,-0.46337 -0.21828,0.005 -0.73814,-0.38031 -1.15524,-0.8565 -0.41711,-0.47619 -0.86359,-0.80077 -0.99219,-0.72129 -0.1286,0.0795 -0.23382,-0.0331 -0.23382,-0.25015 0,-0.35393 -0.59752,-0.68925 -1.52135,-0.85377 -0.18191,-0.0324 -0.33073,0.11619 -0.33073,0.33019 0,0.21399 0.11906,0.31549 0.26458,0.22555 0.14973,-0.0925 0.26458,0.12678 0.26458,0.50525 v 0.66877 l -0.39687,-0.1523 c -0.21828,-0.0838 -0.39688,-0.37768 -0.39688,-0.65315 0,-0.27547 -0.0893,-0.48676 -0.19843,-0.46953 -0.56486,0.0892 -0.8529,-0.14888 -1.74196,-1.43976 -0.53351,-0.77463 -0.97002,-1.5094 -0.97002,-1.63281 0,-0.12341 -0.192,-0.43654 -0.42667,-0.69584 -0.23466,-0.2593 -0.45754,-0.86399 -0.49528,-1.34375 -0.0377,-0.47976 -0.21507,-0.87229 -0.39408,-0.87229 -0.179,0 -0.87075,-0.89297 -1.53721,-1.98438 -1.14455,-1.874336 -1.96208,-3.270505 -6.97176,-11.906249 l -2.07208,-3.571875 -0.005,-12.519392 -0.005,-12.519392 0.59531,0.183895 c 1.99229,0.615431 6.35484,4.452711 8.15589,7.173895 0.49835,0.752953 2.08512,3.134203 3.52615,5.291667 1.44104,2.157463 3.21397,4.815629 3.93986,5.907035 4.02906,6.057877 4.07307,6.12009 9.06833,12.821373 1.74746,2.344258 1.74086,2.33483 3.92277,5.608682 0.85764,1.286855 1.77852,2.756451 2.04641,3.265781 0.26788,0.50932 0.78316,1.26802 1.14507,1.686 0.3619,0.41797 0.72911,1.01329 0.81602,1.32291 0.0869,0.30963 0.35624,0.95126 0.59851,1.42585 l 0.44048,0.86288 -0.32636,0.52259 c -0.1795,0.28742 -0.32818,0.79209 -0.33041,1.12149 -0.005,0.79021 -0.39225,1.37371 -0.76012,1.14635 -0.16179,-0.1 -0.29416,-0.0515 -0.29416,0.1077 v 0.28951 l -0.53842,-0.28815 -0.53841,-0.28815 0.0665,0.98736 c 0.0399,0.59284 -0.0621,1.03023 -0.25533,1.09464 -0.17701,0.059 -0.32183,0.34251 -0.32183,0.63001 0,0.30296 -0.11868,0.44939 -0.28228,0.34828 -0.15526,-0.0959 -0.24934,-0.0137 -0.20907,0.18282 0.0403,0.19651 -0.0791,0.63286 -0.26534,0.96968 l -0.33855,0.61239 -0.37842,-0.31406 c -0.20814,-0.17273 -0.37843,-0.23145 -0.37843,-0.13048 0,0.10098 -0.19015,-0.007 -0.42257,-0.23898 -0.23241,-0.23242 -0.35754,-0.59205 -0.27806,-0.79918 0.0957,-0.24945 0.0151,-0.32692 -0.23888,-0.22947 -0.21087,0.0809 -0.38158,0.28321 -0.37935,0.44954 0.005,0.35643 0.51512,1.20397 0.52106,0.86534 0.002,-0.12696 0.16384,-0.0982 0.35913,0.0639 0.19529,0.16208 0.43971,0.21005 0.54315,0.10661 0.10344,-0.10344 0.10844,0.0195 0.0111,0.2731 l -0.17697,0.46118 -0.87825,-0.0591 c -0.48304,-0.0325 -0.82447,-0.14617 -0.75874,-0.25252 z"
         id="path28" />
      <path
         style="fill:#cb214e"
         d="m 115.09375,240.87491 c 0,-0.15939 0.94661,-3.08915 4.6072,-14.25929 1.04916,-3.20146 2.24188,-6.86263 2.6505,-8.13593 l 0.74293,-2.31511 h 13.49526 13.49526 l -0.16112,0.8056 c -0.17982,0.8991 -1.78813,4.36584 -2.71011,5.84171 -0.5497,0.87994 -1.84198,1.82559 -7.38138,5.40145 -2.53783,1.63826 -11.65284,7.36157 -13.09687,8.22353 -0.80037,0.47774 -2.21263,1.35024 -3.13837,1.93887 l -1.68315,1.07025 -3.19787,0.79471 c -3.40488,0.84616 -3.62228,0.88422 -3.62228,0.63421 z m -23.547917,-1.31486 c -0.945885,-0.20014 -2.429448,-0.5156 -3.296805,-0.70103 -1.69099,-0.36151 -3.329363,-1.23871 -8.741737,-4.68039 -4.472867,-2.84426 -5.00325,-3.26002 -5.503397,-4.314 -0.742903,-1.56555 -4.240491,-4.60853 -7.512493,-6.53604 -2.431757,-1.43252 -6.315197,-6.30966 -5.596422,-7.02843 0.249968,-0.24997 25.881359,-0.24779 26.114472,0.002 0.132864,0.14249 1.104763,2.99751 2.159776,6.34449 1.055013,3.34698 2.67619,8.46114 3.602614,11.36481 2.163798,6.78192 2.272786,6.28869 -1.226008,5.54837 z m -4.758408,-8.94796 c 1.751342,-0.9354 1.345743,-3.70175 -1.605056,-10.94709 -0.384021,-0.94292 -1.074169,-1.05192 -7.131172,-1.12623 -11.531036,-0.14146 -10.867941,-0.36353 -8.238457,2.75903 6.336109,7.52424 9.673257,9.85714 14.19656,9.92437 l 1.591593,0.0237 z m 17.518285,7.04475 c -0.29504,-0.83392 -0.65784,-1.93294 -0.80621,-2.44226 -0.40946,-1.40557 -2.82009,-9.09405 -4.463544,-14.23608 -1.77005,-5.53811 -2.489491,-4.94533 6.002664,-4.94581 8.57772,-4.8e-4 8.37368,-0.59825 3.97347,11.64127 -0.41852,1.16416 -1.01613,3.00963 -1.328,4.10104 -0.73648,2.57727 -2.38439,7.11528 -2.64153,7.2742 -0.11022,0.0681 -0.4418,-0.55844 -0.73685,-1.39236 z m -41.731752,-31.54642 -10.583334,-0.1323 -1.322917,-0.70693 c -1.532288,-0.81882 -3.877849,-2.98878 -4.471463,-4.1367 l -0.409369,-0.79164 0.651159,-0.95953 c 0.358138,-0.52775 0.732037,-1.28387 0.830887,-1.68028 0.192177,-0.77067 3.41804,-6.72927 4.830634,-8.92283 1.061015,-1.64761 2.836417,-4.78507 4.566466,-8.06979 1.204057,-2.28606 2.32871,-4.24636 4.881607,-8.50878 0.493235,-0.82353 1.429964,-2.4904 2.081619,-3.70417 0.651655,-1.21376 1.186817,-2.05759 1.189248,-1.87516 0.0048,0.35822 -1.8943,3.99464 -2.672792,5.11797 -0.986672,1.42372 -5.789454,10.03454 -5.789454,10.37979 0,0.19823 0.238125,0.57591 0.529167,0.8393 0.291042,0.26339 0.529167,0.80952 0.529167,1.21362 v 0.73473 l -0.859896,0.60426 c -3.051118,2.14405 -5.798708,5.6414 -8.249403,10.50048 l -0.711853,1.41141 0.422199,0.64436 c 1.834483,2.79977 8.057978,4.33802 17.550928,4.33802 11.959903,0 14.334425,-1.09569 14.334762,-6.61458 l 1.05e-4,-1.7198 -1.025471,-3.30729 c -1.087525,-3.50742 -1.590895,-5.09947 -5.061129,-16.00729 -2.79118,-8.77338 -3.460333,-11.03848 -3.354639,-11.35556 0.04688,-0.14064 0.292817,0.48408 0.546523,1.38829 0.253707,0.9042 1.476261,4.82642 2.716789,8.71605 2.302705,7.22005 5.717138,18.09196 7.248305,23.07935 0.469097,1.52796 1.311419,4.25881 1.871824,6.06855 1.243883,4.01691 2.83681,3.74528 -20.269669,3.45645 z m 33.624358,0 -2.094391,-0.1323 -1.398875,-4.36562 c -0.769381,-2.4011 -2.654731,-8.05656 -4.189667,-12.56771 -1.534936,-4.51115 -3.748771,-11.23818 -4.919634,-14.94896 -1.986891,-6.29699 -3.196978,-10.12366 -6.576205,-20.79597 -1.665864,-5.26115 -1.710265,-4.56502 0.544793,-8.5413 1.041427,-1.83632 2.900386,-5.12471 4.13102,-7.30752 1.230633,-2.18281 3.099857,-5.45703 4.15383,-7.27604 2.253594,-3.88939 13.699261,-24.07041 17.106663,-30.1625 2.28488,-4.085146 1.77725,-4.269552 5.2541,1.90864 1.49754,2.66103 3.2255,5.7312 3.83993,6.82261 0.61443,1.09141 2.07401,3.65125 3.2435,5.68854 6.00502,10.46096 9.56387,16.69103 11.0332,19.31458 0.89649,1.60073 2.64641,4.63683 3.88871,6.74688 1.2423,2.11005 2.75809,4.75245 3.36843,5.87199 l 1.10971,2.03553 -1.451,4.71134 c -0.79805,2.59124 -2.09896,6.61635 -2.8909,8.94468 -1.25509,3.68997 -2.95192,8.87438 -9.56898,29.23646 -3.91925,12.06038 -4.70964,14.43428 -4.86194,14.60263 -0.19985,0.22092 -16.766887,0.40071 -19.722294,0.21404 z m 10.996164,-5.77598 c 5.42435,-1.50413 9.64873,-6.32341 11.86738,-13.53861 0.46984,-1.52797 1.26975,-3.84969 1.77757,-5.15937 3.60898,-9.30762 5.83734,-14.75394 6.60351,-16.13959 0.37721,-0.68219 1.80487,-3.41709 3.52197,-6.74687 0.26265,-0.50932 1.09332,-2.89057 1.84593,-5.29167 0.75262,-2.40109 1.4123,-4.50427 1.46596,-4.67373 0.0537,-0.16945 -0.10962,-0.70523 -0.36284,-1.19062 -0.9092,-1.7428 -2.49449,-4.54115 -3.62506,-6.39892 -0.63325,-1.04056 -1.7109,-2.90397 -2.39478,-4.14089 -0.68388,-1.23693 -2.07714,-3.67771 -3.09612,-5.42396 -1.01899,-1.74625 -2.28994,-3.94891 -2.82432,-4.89479 -2.48977,-4.40698 -6.76003,-11.91374 -9.03056,-15.875 -1.37627,-2.4011 -3.68782,-6.4744 -5.13677,-9.05179 -3.15985,-5.620705 -2.38813,-5.619485 -5.51818,-0.009 -1.44052,2.58219 -3.241105,5.76645 -4.001298,7.07614 -3.530942,6.08324 -10.445206,18.3668 -10.445206,18.55647 0,0.0563 -0.637385,1.14284 -1.416412,2.41459 -0.779026,1.27175 -2.104717,3.56243 -2.94598,5.0904 -0.841262,1.52797 -1.989815,3.51935 -2.552338,4.42529 -0.562523,0.90593 -1.02277,1.69874 -1.02277,1.76178 0,0.0631 -0.892969,1.66864 -1.984375,3.56799 -2.336719,4.06653 -2.246513,3.30582 -0.898262,7.57515 1.169471,3.70321 3.383038,10.70219 6.192296,19.57916 0.9671,3.05594 2.588739,8.07375 3.603643,11.1507 l 1.84528,5.59445 2.12851,2.87222 c 4.405915,5.94536 7.793326,8.53976 11.867072,9.08895 2.3125,0.31175 2.68838,0.29362 4.53615,-0.21875 z m 19.27635,5.27586 c 0,-0.27506 0.9003,-3.28139 2.00066,-6.68073 3.64866,-11.27175 4.65947,-14.48893 7.01277,-22.3202 1.80039,-5.99128 5.44211,-16.66875 5.68515,-16.66875 0.12329,0 0.64679,0.73003 1.16332,1.62229 0.51653,0.89226 1.60237,2.73773 2.41297,4.10104 0.81061,1.36332 2.05244,3.49079 2.75964,4.72772 0.70719,1.23692 2.52589,4.39208 4.04156,7.01145 1.51567,2.61938 3.08489,5.47688 3.48715,6.35 0.40226,0.87313 1.93159,3.64423 3.39851,6.15801 3.31191,5.67545 3.19382,5.27602 2.15183,7.27812 -1.59442,3.06359 -4.73278,6.02397 -8.46559,7.98551 l -1.78056,0.93566 h -11.9337 -11.93371 z m 19.31459,-9.04346 c 7.26364,-3.04261 10.59266,-10.39404 7.24764,-16.00492 -0.68872,-1.15525 -1.93003,-3.29109 -2.75846,-4.7463 -8.16008,-14.3339 -8.13063,-14.30232 -9.88504,-10.60519 -0.21922,0.46198 -0.80453,1.5141 -1.30069,2.33806 -1.14115,1.89507 -3.63074,9.6495 -4.16508,12.97312 -0.13537,0.84205 -0.47359,2.50892 -0.75158,3.70417 -0.278,1.19525 -0.6455,3.06615 -0.81667,4.15755 -0.17117,1.09141 -0.42103,2.48358 -0.55525,3.09373 -0.38175,1.73536 -0.30391,2.1138 0.61586,2.99426 2.08563,1.99649 4.80623,2.91674 8.26823,2.79677 l 2.64583,-0.0917 z m 18.1829,-16.42878 c -0.60435,-0.98275 -2.41659,-4.16957 -5.69291,-10.01098 -1.6732,-2.98317 -3.66205,-6.37646 -4.41965,-7.54062 -1.53308,-2.35577 -6.82101,-11.6167 -7.94345,-13.91162 l -0.72201,-1.47621 1.49469,-5.05111 c 0.82208,-2.77811 2.186,-7.17398 3.03094,-9.76859 0.84493,-2.59461 1.75395,-5.52598 2.02004,-6.51415 0.65073,-2.4166 0.74577,-2.22095 2.09919,4.32152 0.64594,3.12248 1.6164,7.58224 2.15659,9.91057 0.54019,2.32834 1.19031,5.24537 1.44471,6.4823 0.2544,1.23692 0.89609,4.21349 1.42598,6.61458 0.52989,2.40109 1.14063,5.2776 1.3572,6.39223 0.21657,1.11463 0.81315,3.85307 1.32575,6.08542 0.51259,2.23234 1.21652,5.54709 1.56429,7.3661 0.34776,1.81901 0.82618,4.24248 1.06315,5.38549 0.46121,2.22463 0.40398,2.70454 -0.20451,1.71507 z m -7.06477,-18.01462 0.55542,-0.59532 -0.17228,-1.98437 c -0.31319,-3.60737 -3.62486,-19.7289 -4.21984,-20.54258 l -0.33029,-0.4517 -1.39191,1.17058 c -1.56049,1.31235 -3.34853,3.52341 -4.19504,5.18752 -0.30959,0.60859 -0.67448,1.1755 -0.81089,1.2598 -0.1364,0.0843 -0.32572,0.50711 -0.4207,0.93957 l -0.1727,0.78628 0.89353,1.65808 c 1.21664,2.25763 7.0912,12.42567 7.41638,12.83672 0.45011,0.56896 2.22442,0.40414 2.84832,-0.26458 z M 47.468215,174.7539 c -0.09178,-0.36566 -0.09579,-1.05027 -0.0089,-1.52135 0.08687,-0.47108 0.217325,-1.27323 0.289906,-1.78255 0.07258,-0.50932 0.244806,-1.34276 0.382725,-1.85208 0.137919,-0.50933 0.732863,-3.48589 1.322097,-6.61459 1.029471,-5.46626 1.793083,-9.14093 3.835126,-18.45551 2.235964,-10.19912 2.804487,-12.94342 2.836338,-13.69119 0.0186,-0.43665 0.151091,0.0395 0.294426,1.05816 0.177073,1.25841 0.170698,2.36095 -0.01989,3.43958 -0.154273,0.87313 -0.413488,2.95672 -0.576034,4.63021 -0.162546,1.67349 -0.399341,3.69756 -0.526211,4.49792 -0.12687,0.80036 -0.302721,2.22911 -0.390781,3.175 -0.08806,0.94589 -0.273441,2.4937 -0.411959,3.43958 -1.427069,9.74492 -1.394418,9.7932 2.594698,3.83646 0.974526,-1.45521 2.488083,-3.62461 3.363461,-4.8209 4.285798,-5.85696 4.043375,-4.18306 1.723887,-11.90326 -1.018646,-3.39047 -1.84185,-6.31283 -1.829342,-6.49412 0.0268,-0.38846 -0.06026,-0.6573 2.292399,7.0787 1.017878,3.34698 1.935968,6.592 2.040201,7.21115 l 0.189513,1.12574 -1.655507,2.97531 c -0.910528,1.63641 -2.455416,4.34452 -3.433083,6.01801 -0.977667,1.67349 -3.645405,6.31692 -5.928308,10.31875 -4.772248,8.36553 -5.980409,9.94197 -6.384741,8.33098 z m 87.026855,-45.83243 c -2.05167,-3.60342 -4.32603,-7.50418 -5.05413,-8.66834 -1.52464,-2.43777 -6.4712,-10.93307 -11.70847,-20.10834 -1.99353,-3.492498 -4.5934,-8.040871 -5.77749,-10.107495 l -2.1529,-3.757497 V 73.434692 60.589585 h 0.2937 c 0.77722,0 3.52159,1.805825 5.47245,3.600933 1.19424,1.098903 2.18506,1.899103 2.20182,1.778223 0.0168,-0.12088 0.009,-0.428141 -0.0166,-0.682802 -0.0839,-0.824424 4.22928,4.619602 8.75171,11.046354 1.70214,2.418889 6.42485,8.911622 11.73967,16.139583 8.10111,11.017204 9.3927,12.868274 9.3927,13.461304 0,0.30253 -0.53935,2.27907 -1.19856,4.3923 -2.08318,6.67802 -3.19779,10.31151 -4.74984,15.4839 -3.45162,11.50288 -2.62114,11.14362 -7.19403,3.11209 z m 4.79134,-14.80562 c 0.0973,-0.25365 0.0923,-0.37654 -0.0111,-0.2731 -0.10344,0.10344 -0.34786,0.0555 -0.54315,-0.10661 -0.19529,-0.16208 -0.3569,-0.19081 -0.35913,-0.0639 -0.006,0.33863 -0.51629,-0.50891 -0.52106,-0.86534 -0.002,-0.16633 0.16848,-0.36862 0.37935,-0.44954 0.25395,-0.0974 0.33461,-0.02 0.23888,0.22947 -0.0795,0.20713 0.0456,0.56676 0.27806,0.79918 0.23242,0.23241 0.42257,0.33996 0.42257,0.23898 0,-0.10097 0.17029,-0.0422 0.37843,0.13048 l 0.37842,0.31406 0.33855,-0.61239 c 0.1862,-0.33682 0.3056,-0.77317 0.26534,-0.96968 -0.0403,-0.1965 0.0538,-0.27877 0.20907,-0.18282 0.1636,0.10111 0.28228,-0.0453 0.28228,-0.34828 0,-0.2875 0.14482,-0.571 0.32183,-0.63001 0.19323,-0.0644 0.29526,-0.5018 0.25533,-1.09464 l -0.0665,-0.98736 0.53841,0.28815 0.53842,0.28815 v -0.28951 c 0,-0.15922 0.13237,-0.20769 0.29416,-0.1077 0.36787,0.22736 0.75477,-0.35614 0.76012,-1.14635 0.002,-0.3294 0.15091,-0.83407 0.33041,-1.12149 l 0.32636,-0.52259 -0.44048,-0.86288 c -0.24227,-0.47459 -0.5116,-1.11622 -0.59851,-1.42585 -0.0869,-0.30962 -0.45412,-0.90494 -0.81602,-1.32291 -0.36191,-0.41798 -0.87719,-1.17668 -1.14507,-1.686 -0.26789,-0.50933 -1.18877,-1.978926 -2.04641,-3.265781 -2.18191,-3.273852 -2.17531,-3.264424 -3.92277,-5.608682 -4.99526,-6.701283 -5.03927,-6.763496 -9.06833,-12.821373 -0.72589,-1.091406 -2.49882,-3.749572 -3.93986,-5.907035 -1.44103,-2.157464 -3.0278,-4.538714 -3.52615,-5.291667 -1.80105,-2.721184 -6.1636,-6.558464 -8.15589,-7.173895 l -0.59531,-0.183895 0.005,12.519392 0.005,12.519392 2.07208,3.571875 c 5.00968,8.635744 5.82721,10.031913 6.97176,11.906249 0.66646,1.09141 1.35821,1.98438 1.53721,1.98438 0.17901,0 0.35634,0.39253 0.39408,0.87229 0.0377,0.47976 0.26062,1.08445 0.49528,1.34375 0.23467,0.2593 0.42667,0.57243 0.42667,0.69584 0,0.12341 0.43651,0.85818 0.97002,1.63281 0.88906,1.29088 1.1771,1.52895 1.74196,1.43976 0.10914,-0.0172 0.19843,0.19406 0.19843,0.46953 0,0.27547 0.1786,0.56939 0.39688,0.65315 l 0.39687,0.1523 v -0.66877 c 0,-0.37847 -0.11485,-0.59779 -0.26458,-0.50525 -0.14552,0.0899 -0.26458,-0.0116 -0.26458,-0.22555 0,-0.214 0.14882,-0.36258 0.33073,-0.33019 0.92383,0.16452 1.52135,0.49984 1.52135,0.85377 0,0.21706 0.10522,0.32963 0.23382,0.25015 0.1286,-0.0795 0.57508,0.2451 0.99219,0.72129 0.4171,0.47619 0.93696,0.86161 1.15524,0.8565 0.21828,-0.005 0.60958,0.2034 0.86955,0.46337 0.25997,0.25997 0.58739,0.40177 0.7276,0.31511 0.14021,-0.0867 0.25493,-0.0315 0.25493,0.12265 0,0.33554 0.58189,0.25621 0.85585,-0.11668 0.11441,-0.15573 0.19772,-0.10131 0.20249,0.13229 l 0.008,0.39688 0.25648,-0.39688 0.25648,-0.39687 0.008,0.39687 0.008,0.39688 0.25648,-0.39688 c 0.15458,-0.23921 0.25809,-0.27152 0.26053,-0.0813 0.002,0.17355 0.24218,0.26968 0.53322,0.21363 0.29104,-0.056 0.52916,-0.0135 0.52916,0.0946 0,0.10806 0.29766,0.19647 0.66146,0.19647 0.3638,0 0.66146,-0.0761 0.66146,-0.16919 0,-0.0931 0.29766,-0.30482 0.66146,-0.47058 l 0.66146,-0.30138 v 0.77246 c 0,0.42486 0.121,0.84725 0.2689,0.93865 0.14789,0.0914 0.21511,0.25321 0.14938,0.35957 -0.0657,0.10635 0.2757,0.21999 0.75874,0.25252 l 0.87825,0.0591 z"
         id="path27" />
      <path
         style="fill:#931436"
         d="m 94.958409,244.4075 c -0.524177,-0.32668 -1.610465,-1.18037 -2.413972,-1.89708 -1.454826,-1.29769 -3.376346,-2.49753 -5.893396,-3.67996 -1.431558,-0.67251 -10.908285,-6.62107 -13.49375,-8.47006 -0.873125,-0.62441 -2.718594,-1.85278 -4.101042,-2.72971 -1.382448,-0.87693 -5.09762,-3.25 -8.255938,-5.27349 -7.067372,-4.52797 -8.867758,-5.65158 -9.355686,-5.83881 -1.014894,-0.38946 -0.124633,-0.61311 2.331937,-0.58583 1.491588,0.0166 9.561996,-0.0571 17.934239,-0.16368 l 15.22226,-0.19379 0.28881,0.36089 c 0.245897,0.30727 1.715092,4.74019 3.846453,11.60568 0.293646,0.94589 1.244556,3.92245 2.113134,6.61459 0.868578,2.69213 1.690634,5.65158 1.826791,6.57654 0.140424,0.95395 0.475307,1.97129 0.773821,2.35079 1.143249,1.4534 0.651749,2.24342 -0.823661,1.32392 z m -0.502159,-4.77343 c 0,-0.18865 -0.757984,-2.71873 -1.684409,-5.62239 -0.926424,-2.90367 -2.547601,-8.01783 -3.602614,-11.36481 -1.055013,-3.34698 -2.026912,-6.202 -2.159776,-6.34449 -0.233113,-0.25001 -25.864504,-0.25219 -26.114472,-0.002 -0.718775,0.71877 3.164665,5.59591 5.596422,7.02843 3.272002,1.92751 6.76959,4.97049 7.512493,6.53604 0.500147,1.05398 1.03053,1.46974 5.503397,4.314 5.412374,3.44168 7.050747,4.31888 8.741737,4.68039 5.8971,1.26071 6.207222,1.29944 6.207222,0.77505 z m 19.15247,4.99091 c -0.08,-0.20855 0.16183,-0.90362 0.53747,-1.5446 0.37564,-0.64098 0.68298,-1.49163 0.68298,-1.89033 0,-0.39871 1.37813,-4.97215 3.06251,-10.16321 1.68439,-5.19107 3.28461,-10.21221 3.55604,-11.15809 0.62541,-2.17942 1.29275,-3.78113 1.67941,-4.03085 0.68839,-0.44457 35.35829,-0.11542 35.35829,0.33569 0,0.10387 -0.98227,0.81705 -2.18282,1.58483 -4.94611,3.16317 -7.09078,4.57665 -9.85572,6.49556 -6.52731,4.53003 -23.29143,14.98346 -26.36595,16.44073 -1.47146,0.69745 -2.50716,1.38015 -2.90014,1.91169 -1.06892,1.44579 -3.30663,2.71032 -3.57207,2.01858 z m 5.10731,-4.38428 3.19787,-0.79471 1.68315,-1.07025 c 0.92574,-0.58863 2.338,-1.46113 3.13837,-1.93887 1.44403,-0.86196 10.55904,-6.58527 13.09687,-8.22353 5.5394,-3.57586 6.83168,-4.52151 7.38138,-5.40145 0.92198,-1.47587 2.53029,-4.94261 2.71011,-5.84171 l 0.16112,-0.8056 h -13.49526 -13.49526 l -0.74293,2.31511 c -0.40862,1.2733 -1.60134,4.93447 -2.6505,8.13593 -3.66059,11.17014 -4.6072,14.0999 -4.6072,14.25929 0,0.25001 0.2174,0.21195 3.62228,-0.63421 z m -14.06829,-0.25548 c -0.0967,-0.15641 -0.69044,-1.9784 -1.3195,-4.04886 -1.72354,-5.67284 -3.474798,-11.2426 -4.953254,-15.75349 -0.73034,-2.22832 -1.253158,-4.12623 -1.161819,-4.21757 0.28658,-0.28658 15.068603,-0.38313 15.481363,-0.10111 l 0.3789,0.25888 -1.12581,3.52648 c -0.6192,1.93957 -1.90305,5.96727 -2.85301,8.95045 -3.85254,12.09826 -3.91204,12.2506 -4.44687,11.38522 z m 1.53226,-3.64286 c 0.51537,-1.42064 1.19221,-3.47596 1.50409,-4.56736 0.31187,-1.09141 0.90948,-2.93688 1.328,-4.10104 4.40021,-12.23952 4.60425,-11.64175 -3.97347,-11.64127 -8.492155,4.8e-4 -7.772714,-0.5923 -6.002664,4.94581 1.643454,5.14203 4.054084,12.83051 4.463544,14.23608 1.31665,4.51972 1.43234,4.5684 2.6805,1.12778 z m 20.06408,-29.92895 c -0.23206,-0.15314 -0.29546,-0.45915 -0.17928,-0.86528 0.23265,-0.81317 3.36678,-10.67587 5.71635,-17.9886 1.6108,-5.01342 2.48806,-7.85291 4.14088,-13.40318 0.22843,-0.76708 0.46866,-1.34135 0.53385,-1.27617 0.20343,0.20343 -2.97952,10.58794 -7.98439,26.04939 -1.10036,3.39934 -2.00066,6.40567 -2.00066,6.68073 v 0.50012 h 11.93371 11.9337 l 1.78056,-0.93566 c 3.73281,-1.96154 6.87117,-4.92192 8.46559,-7.98551 1.04141,-2.00099 1.15956,-1.59958 -2.14223,-7.27812 -2.90434,-4.99499 -3.74603,-6.55796 -3.60664,-6.69734 0.19489,-0.1949 6.07315,10.24296 7.24378,12.86258 0.15763,0.35274 0.87884,1.65337 1.60269,2.8903 0.72385,1.23692 1.88887,3.22777 2.58893,4.42409 0.71312,1.21865 1.20534,2.35103 1.11935,2.57512 l -0.15349,0.39997 -7.88141,0.0451 c -4.33478,0.0248 -13.47735,0.0888 -20.31683,0.14224 -7.06409,0.0552 -12.5905,-0.005 -12.79446,-0.13976 z m 7.87974,-77.49518 c -2.2137,-3.89268 -4.23172,-7.37526 -4.48449,-7.73906 -0.49303,-0.70961 -2.88597,-4.85005 -13.40814,-23.199785 l -6.70356,-11.690408 0.12043,-12.915842 c 0.0662,-7.103713 0.21729,-14.341363 0.33567,-16.083666 l 0.21523,-3.167824 1.47721,1.977199 c 0.81246,1.08746 2.09169,2.893528 2.84273,4.013486 0.75103,1.119957 1.76643,2.429645 2.25643,2.910416 0.868,0.851644 5.58221,7.069891 10.36615,13.673407 1.30463,1.800852 3.33087,4.598821 4.50275,6.217708 1.17188,1.618887 4.14321,5.681869 6.60295,9.028848 2.45975,3.346979 5.70139,7.796329 7.20364,9.887441 l 2.73137,3.80203 -0.16039,0.5636 c -0.0882,0.30998 -0.67396,2.23047 -1.30165,4.26776 -0.62768,2.03729 -1.70264,5.54964 -2.3888,7.80521 -6.46788,21.2615 -5.02734,19.75858 -10.20753,10.64948 z m 5.31574,4.15772 c 0.4076,-1.23172 1.41989,-4.50168 2.24954,-7.26657 1.55205,-5.17239 2.66666,-8.80588 4.74984,-15.4839 0.65921,-2.11323 1.19856,-4.08977 1.19856,-4.3923 0,-0.59303 -1.29159,-2.4441 -9.3927,-13.461304 -5.31482,-7.227961 -10.03753,-13.720694 -11.73967,-16.139583 -4.52243,-6.426752 -8.83557,-11.870778 -8.75171,-11.046354 0.0259,0.254661 0.0334,0.561922 0.0166,0.682802 -0.0168,0.12088 -1.00758,-0.67932 -2.20182,-1.778223 -1.95086,-1.795108 -4.69523,-3.600933 -5.47245,-3.600933 h -0.2937 v 12.845107 12.845106 l 2.1529,3.757497 c 1.18409,2.066624 3.78396,6.614997 5.77749,10.107495 5.23727,9.17527 10.18383,17.67057 11.70847,20.10834 0.7281,1.16416 3.00246,5.06492 5.05413,8.66834 4.2042,7.384 3.94724,7.16809 4.94449,4.15448 z"
         id="path26" />
      <path
         style="fill:#5e0e22"
         d="m 103.50031,259.948 c -0.4828,-0.2097 -2.14968,-1.20462 -3.70417,-2.21092 -2.565727,-1.66093 -12.818644,-8.14164 -21.611765,-13.66046 -1.891771,-1.18734 -7.07099,-4.4581 -11.509376,-7.26837 -4.438385,-2.81028 -10.153385,-6.41965 -12.7,-8.02083 -2.546614,-1.60118 -5.225521,-3.29572 -5.953125,-3.76565 -0.727604,-0.46993 -4.239948,-2.67223 -7.805208,-4.89399 -11.268756,-7.02233 -11.090378,-6.8189 -9.93731,-11.33334 0.209792,-0.82137 0.871196,-3.87465 1.469786,-6.78507 0.59859,-2.91041 1.689632,-8.08963 2.424537,-11.50937 0.734905,-3.41974 1.674246,-7.88458 2.087424,-9.92188 0.413178,-2.03729 1.298347,-6.14494 1.967043,-9.12812 0.668696,-2.98318 1.739372,-7.92427 2.379281,-10.98021 0.639908,-3.05594 1.755471,-8.23516 2.479028,-11.50937 0.723558,-3.27422 1.748997,-8.03672 2.278755,-10.58334 0.529758,-2.54661 1.429322,-6.65427 1.99903,-9.12812 0.569708,-2.47386 1.523264,-6.76011 2.119014,-9.525 3.83305,-17.78934 3.336666,-16.32246 7.345959,-21.708278 2.530402,-3.399176 5.249253,-7.120982 13.832936,-18.93576 2.390974,-3.290991 6.847538,-9.402446 9.903476,-13.581011 3.055937,-4.178565 6.515725,-8.927342 7.688418,-10.552837 2.168654,-3.00602 6.335605,-8.706094 10.380865,-14.200239 5.986162,-8.130217 7.199422,-8.045843 13.735332,0.955201 1.27965,1.762287 3.75539,5.138811 5.50164,7.503387 1.74625,2.364575 3.63105,4.96325 4.18845,5.774831 0.55739,0.811582 1.69817,2.376151 2.53505,3.476821 1.51732,1.995575 2.22339,2.958317 9.32649,12.716843 3.74458,5.144459 7.20633,9.877397 16.3105,22.299886 2.64309,3.606447 5.29552,7.278586 5.89429,8.160316 l 1.08867,1.60314 0.88424,3.51055 c 0.48634,1.9308 1.07068,4.50944 1.29856,5.7303 0.22787,1.22087 0.58088,2.99367 0.78448,3.93956 0.87362,4.05884 1.78768,8.1891 2.16015,9.76094 0.22041,0.93014 0.80524,3.60904 1.29962,5.95313 1.03359,4.90076 2.21109,10.33655 3.18713,14.71301 0.37322,1.67349 1.20212,5.54302 1.842,8.59896 0.63988,3.05594 2.36266,11.15219 3.82839,17.99166 1.46574,6.83948 2.96689,13.86417 3.33589,15.61042 1.52902,7.23584 3.50165,16.41327 4.31004,20.052 l 0.51651,2.32491 -0.25687,0.93034 c -0.40114,1.45279 -1.35805,2.27063 -6.04505,5.16651 -6.74327,4.16635 -10.12798,6.27874 -14.15521,8.83424 -2.03729,1.29277 -4.89479,3.08241 -6.35,3.97698 -2.6085,1.60353 -7.80229,4.87624 -13.49375,8.50267 -6.89459,4.39302 -14.54049,9.22204 -21.69583,13.70272 -4.22011,2.64263 -8.50808,5.35527 -9.52883,6.02808 -2.86324,1.88727 -3.89564,2.14091 -5.63649,1.38476 z m 2.66693,-0.14196 c 0.54744,-0.15203 2.60084,-1.31222 4.5631,-2.57821 3.32138,-2.14285 5.71439,-3.65281 10.31654,-6.50961 3.20532,-1.98971 12.83099,-8.0714 16.13958,-10.19731 1.74625,-1.12203 4.84187,-3.09092 6.87917,-4.3753 2.03729,-1.28437 4.77572,-3.01907 6.08541,-3.85487 1.30969,-0.8358 4.16719,-2.62038 6.35,-3.96572 2.18281,-1.34534 4.56406,-2.83198 5.29167,-3.30364 0.7276,-0.47166 4.5376,-2.84986 8.46667,-5.28488 9.18878,-5.69474 9.14491,-5.66415 9.56516,-6.66995 0.52021,-1.24503 0.44724,-2.28338 -0.42676,-6.07279 -0.84077,-3.64531 -2.89128,-13.15928 -3.58335,-16.62605 -0.5013,-2.51114 -2.67947,-12.77393 -3.03237,-14.2875 -0.13572,-0.58209 -0.37796,-1.71318 -0.53831,-2.51354 -0.16035,-0.80037 -0.39968,-1.93146 -0.53186,-2.51355 -0.13217,-0.58208 -0.48815,-2.24895 -0.79106,-3.70416 -0.3029,-1.45521 -0.66059,-3.12209 -0.79485,-3.70417 -0.31134,-1.34986 -1.52245,-7.02595 -2.90737,-13.62604 -0.59544,-2.83766 -1.253,-5.81422 -1.46125,-6.61458 -0.20824,-0.80037 -0.61831,-2.64584 -0.91126,-4.10105 -0.6266,-3.11254 -1.66029,-7.97129 -2.25159,-10.58333 -0.23059,-1.01864 -0.70718,-3.23852 -1.05909,-4.93307 -0.3519,-1.69454 -0.81572,-3.77813 -1.03071,-4.6302 -0.215,-0.85208 -0.82805,-3.69235 -1.36234,-6.31173 -2.06804,-10.13849 -1.48254,-8.95234 -10.18689,-20.637498 -0.542,-0.727604 -3.02882,-4.120885 -5.52627,-7.540624 -2.49745,-3.41974 -5.63786,-7.70599 -6.97869,-9.525 -1.34083,-1.819011 -3.63189,-4.974167 -5.09124,-7.011458 -1.45935,-2.037292 -3.3606,-4.656667 -4.225,-5.820834 -1.48693,-2.00258 -2.36134,-3.19475 -7.39753,-10.085827 -12.4681,-17.060244 -12.27426,-16.837604 -14.69717,-16.880562 l -1.19062,-0.02111 -0.88689,0.63255 c -0.48779,0.347902 -2.04279,2.19337 -3.455557,4.101041 -3.151841,4.255954 -8.907828,12.11149 -11.92943,16.280798 -2.128743,2.937312 -11.250564,15.46477 -15.593458,21.415284 -1.100733,1.508195 -2.663145,3.65132 -3.472025,4.7625 -6.337162,8.705523 -8.389885,11.512662 -10.957733,14.984909 -1.614265,2.182812 -3.203622,4.407071 -3.531903,4.942801 -0.527978,0.86162 -1.987701,6.47242 -3.085074,11.85824 -0.688333,3.37828 -1.765751,8.2938 -3.711569,16.93333 -0.671879,2.98318 -1.80417,8.22193 -2.516201,11.64167 -0.712032,3.41974 -1.833666,8.65849 -2.492521,11.64167 -2.653016,12.01239 -5.439721,24.89336 -5.953028,27.51666 -0.298982,1.52797 -0.847167,4.14735 -1.21819,5.82084 -0.371022,1.67349 -1.257034,5.84067 -1.968916,9.26041 -0.711881,3.41974 -1.658748,7.85394 -2.104148,9.85379 -0.4454,1.99984 -0.809818,4.13361 -0.809818,4.7417 v 1.10564 l 1.146118,1.07912 c 0.630365,0.59352 4.291537,3.0282 8.135937,5.4104 3.844401,2.3822 7.585133,4.71884 8.312737,5.19252 0.727604,0.47369 2.334948,1.49391 3.571875,2.26715 1.236927,0.77324 3.439583,2.16622 4.894792,3.0955 2.406693,1.53688 12.489881,7.91344 17.727083,11.21051 15.619723,9.83336 22.210185,13.99884 26.041942,16.45972 2.758637,1.77169 3.773757,2.27984 5.046597,2.52623 0.0728,0.0141 0.58021,-0.0988 1.12766,-0.25082 z M 94.411345,244.40885 c -0.959753,-0.61846 -2.622197,-1.70758 -3.694321,-2.42027 -1.072124,-0.71269 -2.425566,-1.58499 -3.007649,-1.93846 -2.998214,-1.82065 -13.285078,-8.28728 -15.97313,-10.04119 -1.692279,-1.10418 -3.493589,-2.26988 -4.002912,-2.59043 -0.509323,-0.32055 -1.580886,-1.00776 -2.38125,-1.52713 -3.235823,-2.09978 -11.123443,-7.06579 -13.308739,-8.37912 -1.280691,-0.76967 -2.28281,-1.53659 -2.226929,-1.70427 l 0.1016,-0.30486 18.663381,-0.0679 18.66338,-0.0679 0.273389,0.3325 c 0.360848,0.43886 6.696228,20.23138 7.770906,24.27728 0.135287,0.50932 0.551429,1.79013 0.924759,2.84623 1.058307,2.99381 0.772734,3.24501 -1.802485,1.58554 z m 1.896988,-0.0305 c 0,-0.34418 -0.236818,-0.92685 -0.526263,-1.29481 -0.298514,-0.3795 -0.633397,-1.39684 -0.773821,-2.35079 -0.136157,-0.92496 -0.958213,-3.88441 -1.826791,-6.57654 -0.868578,-2.69214 -1.819488,-5.6687 -2.113134,-6.61459 -2.131361,-6.86549 -3.600556,-11.29841 -3.846453,-11.60568 l -0.28881,-0.36089 -15.22226,0.19379 c -8.372243,0.10659 -16.442651,0.18024 -17.934239,0.16368 -2.45657,-0.0273 -3.346831,0.19637 -2.331937,0.58583 0.487928,0.18723 2.288314,1.31084 9.355686,5.83881 3.158318,2.02349 6.87349,4.39656 8.255938,5.27349 1.382448,0.87693 3.227917,2.1053 4.101042,2.72971 2.585465,1.84899 12.062192,7.79755 13.49375,8.47006 2.51705,1.18243 4.43857,2.38227 5.893396,3.67996 2.577855,2.29941 3.763896,2.88802 3.763896,1.86797 z m 17.007517,0.16275 c 0.0714,-0.5457 0.32087,-1.52797 0.55446,-2.18281 0.23359,-0.65484 0.67121,-2.02406 0.9725,-3.04271 0.53814,-1.81944 3.49726,-11.10287 6.11441,-19.18229 0.73064,-2.25557 1.45191,-4.25067 1.60283,-4.43356 l 0.27438,-0.33252 18.39878,0.0679 18.39878,0.0679 0.10979,0.32945 c 0.0633,0.18996 -1.08339,1.08618 -2.70826,2.11667 -1.54994,0.98297 -5.19061,3.33503 -8.09039,5.2268 -6.61484,4.31542 -8.81621,5.73207 -14.27021,9.18334 -2.4011,1.5194 -5.61578,3.55601 -7.14375,4.5258 -1.52797,0.96979 -3.55203,2.20411 -4.49792,2.74295 -1.55147,0.88381 -2.95772,1.78717 -7.64363,4.91019 -0.81647,0.54416 -1.64583,0.99064 -1.84301,0.99219 l -0.35852,0.003 z m 2.02959,-0.32245 c 0.67324,-0.43202 1.49914,-1.15755 1.83535,-1.61229 0.39298,-0.53154 1.42868,-1.21424 2.90014,-1.91169 3.07452,-1.45727 19.83864,-11.9107 26.36595,-16.44073 2.76494,-1.91891 4.90961,-3.33239 9.85572,-6.49556 1.20055,-0.76778 2.18282,-1.48096 2.18282,-1.58483 0,-0.45111 -34.6699,-0.78026 -35.35829,-0.33569 -0.38666,0.24972 -1.054,1.85143 -1.67941,4.03085 -0.27143,0.94588 -1.87165,5.96702 -3.55604,11.15809 -1.68438,5.19106 -3.06251,9.7645 -3.06251,10.16321 0,0.3987 -0.30734,1.24935 -0.68298,1.89033 -1.12406,1.91807 -0.67707,2.34234 1.19925,1.13831 z m -11.06714,-3.91088 c -0.16297,-0.40018 -0.81603,-2.45401 -1.45124,-4.56406 -1.50261,-4.99145 -4.72224,-15.211 -5.567245,-17.67124 -0.364311,-1.0607 -0.600734,-2.08919 -0.525385,-2.28555 l 0.136999,-0.35701 3.705171,-0.10175 c 2.03784,-0.056 5.71361,-0.0557 8.16838,5.8e-4 l 4.46321,0.10235 0.13689,0.35674 c 0.12986,0.3384 -0.60825,2.80788 -3.5527,11.88609 -0.70798,2.18281 -1.95146,6.08211 -2.7633,8.6651 l -1.47607,4.69635 h -0.4892 c -0.28544,0 -0.61261,-0.30304 -0.78551,-0.7276 z m 2.1071,-3.25768 c 0.54011,-1.6644 1.75926,-5.46696 2.70921,-8.45013 0.94996,-2.98318 2.23381,-7.01088 2.85301,-8.95045 l 1.12581,-3.52648 -0.3789,-0.25888 c -0.41276,-0.28202 -15.194783,-0.18547 -15.481363,0.10111 -0.09134,0.0913 0.431479,1.98925 1.161819,4.21757 1.478456,4.51089 3.229714,10.08065 4.953254,15.75349 1.6497,5.42979 1.65585,5.43203 3.05716,1.11377 z M 42.53177,206.71877 c -0.675975,-0.17226 -0.573288,-0.75199 0.429687,-2.42583 0.490989,-0.8194 1.72782,-3.09716 2.748512,-5.06169 2.969696,-5.71579 3.968098,-7.51125 11.181639,-20.10833 0.541648,-0.94589 1.575036,-2.73183 2.296418,-3.96875 2.580291,-4.42433 4.557736,-7.87085 6.953832,-12.11996 l 2.433112,-4.31474 0.550645,0.0814 c 0.318113,0.047 0.634174,0.36074 0.748447,0.74287 0.108791,0.3638 1.16418,3.69755 2.345308,7.40833 1.181128,3.71078 2.373568,7.46125 2.649867,8.33438 3.350656,10.58834 6.139214,19.34747 7.328252,23.01875 0.801221,2.47385 1.69566,5.24624 1.987642,6.16087 l 0.530875,1.66296 -0.323886,0.39025 -0.323886,0.39026 -20.536722,-0.0364 c -11.295196,-0.02 -20.745081,-0.0895 -20.999742,-0.15439 z m 41.313191,-0.30983 0.36892,-0.24467 -0.300736,-1.19433 c -0.165404,-0.65688 -1.065576,-3.55626 -2.000382,-6.44307 -0.934806,-2.88681 -3.088989,-9.65406 -4.787072,-15.03833 -1.698084,-5.38427 -3.662536,-11.57552 -4.365449,-13.75833 -0.702914,-2.18281 -1.717186,-5.3975 -2.253939,-7.14375 -1.382899,-4.49907 -1.320562,-4.48966 -3.506854,-0.52917 -2.067734,3.74573 -4.505991,8.04901 -7.645607,13.49375 -2.530989,4.38925 -4.469839,7.77263 -9.307507,16.24199 -1.669999,2.92368 -4.80236,9.04781 -4.803932,9.39223 -7.4e-4,0.16222 -0.582915,1.30698 -1.293721,2.54391 -1.570752,2.73338 -2.608058,2.35697 7.007405,2.54275 4.498058,0.0869 8.207132,0.18441 8.242387,0.21669 0.218775,0.2003 24.341927,0.12232 24.646487,-0.0797 z m 9.894828,0.1645 c -0.300488,-0.39423 -8.372823,-24.94162 -11.724254,-35.65261 -0.751294,-2.40109 -1.765577,-5.61578 -2.253963,-7.14375 -5.475268,-17.12997 -5.125708,-15.0095 -3.065267,-18.59422 0.855051,-1.48761 2.833846,-4.96692 4.397323,-7.73182 1.563476,-2.76489 3.525413,-6.21771 4.359859,-7.67291 6.650402,-11.59778 14.041911,-24.61555 17.464333,-30.757817 2.18769,-3.926281 2.02119,-3.964545 4.893,1.124477 0.98544,1.74625 2.60084,4.60375 3.58979,6.35 2.99574,5.28977 18.33795,32.12199 19.7426,34.52813 2.80475,4.80446 4.05887,7.09263 4.05887,7.40544 0,0.57878 -5.7757,18.76677 -8.61297,27.12268 -0.64235,1.89177 -1.99638,6.05896 -3.00894,9.26042 -1.01257,3.20146 -2.14164,6.7138 -2.50904,7.80521 -0.36741,1.0914 -1.50606,4.5923 -2.53034,7.77977 -1.02428,3.18747 -1.99534,5.95567 -2.15791,6.15156 l -0.29559,0.35617 H 105.03958 93.991877 Z m 22.198561,-0.26459 c 0.40823,-0.3241 0.97203,-1.97518 6.16626,-18.05781 1.40998,-4.36562 4.21027,-12.99766 6.22289,-19.18229 2.01261,-6.18464 4.32448,-13.32839 5.13748,-15.875 l 1.4782,-4.63021 -0.95448,-1.85208 c -0.52496,-1.01865 -2.23419,-4.05474 -3.79828,-6.74688 -4.2618,-7.33548 -6.86546,-11.84113 -7.95048,-13.75833 -2.27736,-4.02404 -6.6616,-11.73382 -8.27519,-14.55208 -0.95815,-1.67349 -3.27065,-5.72031 -5.13888,-8.99292 -4.15233,-7.273678 -3.58858,-7.158189 -6.80777,-1.39465 -1.44354,2.58446 -3.243565,5.77059 -4.000063,7.08028 -1.708448,2.95774 -6.351509,11.13486 -9.314471,16.40416 -1.22741,2.18281 -2.800077,4.92125 -3.494815,6.08542 -0.694738,1.16416 -1.714836,2.9501 -2.266883,3.96875 -0.552048,1.01864 -1.559968,2.80458 -2.239823,3.96875 -6.229544,10.66732 -5.908665,8.28587 -2.541761,18.86403 1.51472,4.75895 3.671106,11.56967 4.791969,15.13493 1.66129,5.28425 7.582625,23.44513 10.304537,31.60426 0.794153,2.38053 -0.04744,2.22225 11.93066,2.24381 l 10.33433,0.0186 z m 9.78768,0.163 c -0.17072,-0.30506 -0.0972,-0.91574 0.23187,-1.92545 1.1492,-3.52638 7.83297,-24.53997 8.84382,-27.80473 0.38298,-1.23693 1.82836,-5.73154 3.21194,-9.98802 l 2.51562,-7.73907 h 0.5053 c 0.27792,0 0.66876,0.26789 0.86853,0.59532 0.86627,1.41979 3.40158,5.81247 4.61944,8.00364 0.72793,1.30969 2.36367,4.16719 3.63497,6.35 1.2713,2.18281 3.44159,5.99281 4.82286,8.46667 1.38127,2.47385 3.31485,5.86713 4.29684,7.54062 0.982,1.67349 2.44977,4.30242 3.26172,5.84207 0.81195,1.53964 2.01538,3.68277 2.67429,4.76249 0.65891,1.07973 1.62633,2.78166 2.14983,3.78207 l 0.95181,1.81892 -0.29764,0.29775 -0.29764,0.29774 -20.87177,0.0734 -20.87178,0.0734 z m 33.6818,-0.12098 7.93386,-0.10816 0.0777,-0.40324 c 0.0427,-0.22178 -0.79749,-1.88865 -1.86712,-3.70416 -3.2352,-5.49119 -3.46079,-5.89787 -4.03265,-7.26969 -0.30331,-0.7276 -1.63086,-3.16838 -2.9501,-5.42395 -1.31924,-2.25558 -2.90726,-5.05355 -3.52894,-6.21771 -1.05754,-1.98038 -3.98117,-7.09459 -9.60463,-16.80104 -1.30677,-2.25558 -2.72294,-4.72387 -3.14705,-5.4851 -0.88266,-1.58428 -1.10204,-1.78206 -1.46969,-1.32501 -0.27511,0.34201 -4.753,13.98721 -6.30586,19.21547 -0.49213,1.65696 -1.72161,5.58602 -2.73217,8.73125 -2.34957,7.31273 -5.4837,17.17543 -5.71635,17.9886 -0.33778,1.1807 1.81594,1.23255 33.34303,0.80274 z m 5.37321,-23.45764 c -0.22053,-0.25466 -0.85633,-1.29646 -1.41288,-2.31511 -1.65978,-3.03787 -8.23963,-14.58754 -10.17449,-17.85937 -3.00948,-5.08902 -7.38003,-12.85112 -8.04906,-14.29516 l -0.63148,-1.36299 0.20702,-0.70374 c 0.11387,-0.38705 0.586,-2.01342 1.04918,-3.61415 1.01197,-3.4973 2.31978,-7.73962 3.87435,-12.56771 0.63254,-1.96453 1.34623,-4.37104 1.58597,-5.34779 0.23975,-0.97675 0.60115,-1.98878 0.80312,-2.24896 l 0.36723,-0.47304 0.35899,0.46178 c 0.19745,0.25398 0.68218,2.09945 1.07718,4.10104 0.395,2.00159 1.31414,6.31817 2.04252,9.59239 2.4461,10.9957 4.39912,20.04678 5.01897,23.25991 0.15191,0.78748 0.62925,2.9306 1.06076,4.7625 1.19058,5.05444 3.89995,18.64983 3.76152,18.87498 -0.19641,0.31946 -0.50954,0.23121 -0.9389,-0.26458 z M 165.1,181.62861 c 0,-0.59337 -2.04999,-10.93299 -2.7787,-14.01507 -0.34406,-1.45521 -0.98698,-4.37224 -1.42871,-6.48229 -1.73133,-8.27024 -3.10041,-14.57362 -5.30519,-24.42561 -0.74307,-3.32039 -1.51627,-6.89226 -1.71822,-7.9375 -0.20195,-1.04524 -0.5681,-2.77665 -0.81367,-3.84757 l -0.44649,-1.94715 -0.3457,0.35965 c -0.19014,0.1978 -0.63748,1.4312 -0.99409,2.74089 -0.35661,1.30969 -1.48173,5.00062 -2.50027,8.20208 -1.01854,3.20146 -2.30819,7.40192 -2.86589,9.33435 l -1.014,3.51352 0.74051,1.51357 c 0.86309,1.76412 6.98991,12.5391 8.23249,14.47814 0.46627,0.72761 2.25192,3.82323 3.96811,6.87917 7.32264,13.03907 7.26982,12.95455 7.26982,11.63382 z m -120.650001,1.07562 c 0,-0.11565 4.245847,-20.25353 5.664113,-26.86465 0.529352,-2.46753 2.763688,-12.66797 5.042095,-23.01875 0.208208,-0.94588 0.625827,-2.98363 0.928043,-4.52832 0.302217,-1.5447 0.700645,-3.33064 0.885398,-3.96875 l 0.335913,-1.16022 h 0.517532 0.517531 l 0.875221,2.64584 c 0.481371,1.4552 1.213922,3.77692 1.627891,5.15937 1.428324,4.76988 2.682821,8.87425 3.726192,12.19106 0.575706,1.83013 1.046738,3.50833 1.046738,3.72932 0,0.35386 -14.700382,26.30163 -15.8633,28.00045 -0.249039,0.3638 -1.246963,2.09021 -2.217609,3.83646 -2.093764,3.76681 -3.085758,5.0457 -3.085758,3.97819 z m 3.214492,-5.12285 c 0.611934,-1.11669 1.374654,-2.38753 1.694933,-2.82409 0.586862,-0.79993 6.811848,-11.55352 9.123886,-15.7614 0.685284,-1.2472 1.549093,-2.74782 1.919577,-3.33471 5.609436,-8.88592 5.608621,-6.77989 0.0097,-25.08931 -2.82848,-9.24963 -2.696369,-9.31304 -4.96093,2.38125 -0.366335,1.89178 -1.318685,6.35662 -2.116333,9.92188 -1.887483,8.4365 -3.395651,15.45011 -4.523121,21.03437 -0.499473,2.47386 -1.447179,7.1104 -2.106011,10.30344 -0.658833,3.19303 -1.193916,5.991 -1.189075,6.21771 l 0.0088,0.41219 0.512973,-0.6155 c 0.282136,-0.33852 1.013647,-1.52915 1.625581,-2.64583 z m 23.273692,-41.38711 c -0.338749,-0.90988 -0.731579,-2.15594 -1.7725,-5.6224 -0.524371,-1.74624 -1.292446,-4.24656 -1.706833,-5.55624 -0.414388,-1.30969 -0.926236,-2.97657 -1.137442,-3.70417 -0.211205,-0.72761 -1.349143,-4.43121 -2.528751,-8.23024 -2.580574,-8.31095 -2.568234,-7.18138 -0.114439,-10.47545 2.748485,-3.689679 4.204453,-5.678875 5.774906,-7.889884 0.727605,-1.024378 3.054824,-4.210532 5.171599,-7.080342 2.116775,-2.869809 4.233564,-5.753616 4.703975,-6.40846 0.470412,-0.654843 1.298349,-1.792459 1.83986,-2.528033 0.541512,-0.735575 1.707487,-2.342919 2.591055,-3.571875 0.883569,-1.228957 2.900303,-4.020404 4.48163,-6.203216 1.581327,-2.182813 3.516908,-4.861719 4.301289,-5.953125 0.784382,-1.091406 1.764799,-2.341563 2.178706,-2.778125 0.714925,-0.754058 1.512833,-1.861527 4.04685,-5.616891 0.611666,-0.906477 1.307162,-1.650617 1.545532,-1.653645 l 0.43342,-0.0055 0.18144,6.151563 c 0.0998,3.383359 0.14288,10.973593 0.0958,16.867187 l -0.0857,10.715625 -2.405847,4.101041 c -3.194055,5.444631 -10.028126,17.30165 -12.352408,21.43125 -1.0238,1.81901 -2.836735,4.97417 -4.028744,7.01146 -1.192009,2.03729 -3.800097,6.54745 -5.795751,10.02258 -4.845181,8.43714 -4.864631,8.46219 -5.417607,6.9769 z m 3.194813,-3.77031 c 1.17225,-2.03729 4.060899,-7.03792 6.419221,-11.1125 4.23967,-7.32508 6.193651,-10.72608 9.120678,-15.875 0.827248,-1.45521 3.640907,-6.336772 6.252575,-10.847918 l 4.74849,-8.202083 0.0637,-13.317207 0.0637,-13.317206 -0.29602,-0.553127 c -0.16708,-0.312182 -0.27521,-1.582066 -0.24823,-2.915218 0.0632,-3.125424 0.10195,-3.14673 -3.079529,1.69478 -0.538491,0.819465 -1.31904,1.712434 -1.734552,1.984375 -0.415513,0.27194 -1.262391,1.208812 -1.881952,2.081937 -2.331402,3.285563 -14.661323,20.279785 -17.756739,24.473958 -1.772074,2.401094 -4.336187,5.913437 -5.698029,7.805208 -1.361842,1.891771 -3.173594,4.392083 -4.026115,5.55625 -3.501263,4.781171 -4.191623,5.831741 -4.083294,6.213821 0.0625,0.22042 0.714332,2.36529 1.448525,4.76639 0.734193,2.40109 2.244104,7.34218 3.355357,10.98021 1.111254,3.63802 2.359919,7.68614 2.774811,8.99583 0.414892,1.30969 0.949556,3.07352 1.188141,3.91963 l 0.433792,1.53837 0.402018,-0.0832 c 0.22111,-0.0457 1.361132,-1.75004 2.533382,-3.78733 z m 63.922174,3.90167 c -0.22124,-0.25415 -2.24802,-3.67678 -4.50396,-7.60584 -2.25594,-3.92906 -5.62141,-9.76312 -7.47882,-12.96458 -1.85741,-3.20146 -6.4091,-11.11585 -10.11487,-17.587539 l -6.73777,-11.766705 0.0841,-16.014545 c 0.0885,-16.848663 0.10146,-17.205169 0.62502,-17.205169 0.30329,0 3.04293,3.57639 5.16834,6.746874 0.48777,0.727605 1.55537,2.156355 2.37245,3.175 0.81708,1.018646 3.13583,4.114271 5.15277,6.879167 2.01694,2.764896 3.9854,5.443802 4.37436,5.953125 0.38896,0.509323 2.13489,2.890573 3.87984,5.291666 1.74495,2.401094 5.18296,7.104063 7.64001,10.451042 7.61776,10.376834 9.91459,13.650654 9.91459,14.131884 0,0.25527 -0.36364,1.58534 -0.8081,2.95571 -0.44445,1.37036 -1.27138,4.06487 -1.83762,5.98779 -0.99596,3.38221 -2.63117,8.7028 -5.31851,17.30518 -0.71006,2.27295 -1.4527,4.26683 -1.65031,4.43083 l -0.3593,0.29819 z m 1.87533,-3.70323 c 0.58311,-1.85539 1.53115,-4.92125 2.10674,-6.81302 0.5756,-1.89178 1.60795,-5.28506 2.29411,-7.54063 0.68616,-2.25557 1.76112,-5.76792 2.3888,-7.80521 0.62769,-2.03729 1.21343,-3.95778 1.30165,-4.26776 l 0.16039,-0.5636 -2.73137,-3.80203 c -1.50225,-2.091112 -4.74389,-6.540462 -7.20364,-9.887441 -2.45974,-3.346979 -5.43107,-7.409961 -6.60295,-9.028848 -1.17188,-1.618887 -3.19812,-4.416856 -4.50275,-6.217708 -4.78394,-6.603516 -9.49815,-12.821763 -10.36615,-13.673407 -0.49,-0.480771 -1.5054,-1.790459 -2.25643,-2.910416 -0.75104,-1.119958 -2.03027,-2.926026 -2.84273,-4.013486 l -1.47721,-1.977199 -0.21523,3.167824 c -0.11838,1.742303 -0.26943,8.979953 -0.33567,16.083666 l -0.12043,12.915842 6.70356,11.690408 c 10.52217,18.349735 12.91511,22.490175 13.40814,23.199785 0.25277,0.3638 2.27079,3.84638 4.48449,7.73906 4.69899,8.26294 4.42824,8.09022 5.80668,3.70417 z"
         id="path25" />
      <path
         style="fill:#030001"
         d="m 104.09403,259.8367 c -0.4473,-0.107 -2.29277,-1.14473 -4.101047,-2.30607 -3.831757,-2.46088 -10.422219,-6.62636 -26.041942,-16.45972 -5.237202,-3.29707 -15.32039,-9.67363 -17.727083,-11.21051 -1.455209,-0.92928 -3.657865,-2.32226 -4.894792,-3.0955 -1.236927,-0.77324 -2.844271,-1.79346 -3.571875,-2.26715 -0.727604,-0.47368 -4.468336,-2.81032 -8.312737,-5.19252 -3.8444,-2.3822 -7.505572,-4.81688 -8.135937,-5.4104 l -1.146118,-1.07912 v -1.10564 c 0,-0.60809 0.364418,-2.74186 0.809818,-4.7417 0.4454,-1.99985 1.392267,-6.43405 2.104148,-9.85379 0.711882,-3.41974 1.597894,-7.58692 1.968916,-9.26041 0.371023,-1.67349 0.919208,-4.29287 1.21819,-5.82084 0.513307,-2.6233 3.300012,-15.50427 5.953028,-27.51666 0.658855,-2.98318 1.780489,-8.22193 2.492521,-11.64167 0.712031,-3.41974 1.844322,-8.65849 2.516201,-11.64167 1.945818,-8.63953 3.023236,-13.55505 3.711569,-16.93333 1.097373,-5.38582 2.557096,-10.99662 3.085074,-11.85824 0.328281,-0.53573 1.917638,-2.759989 3.531903,-4.942801 2.567848,-3.472247 4.620571,-6.279386 10.957733,-14.984909 0.80888,-1.11118 2.371292,-3.254305 3.472025,-4.7625 4.342894,-5.950514 13.464715,-18.477972 15.593458,-21.415284 3.021602,-4.169308 8.777589,-12.024844 11.92943,-16.280798 1.412767,-1.907671 2.967767,-3.753139 3.455557,-4.101041 l 0.88689,-0.63255 1.19062,0.02111 c 2.42291,0.04296 2.22907,-0.179682 14.69717,16.880562 5.03619,6.891077 5.9106,8.083247 7.39753,10.085827 0.8644,1.164167 2.76565,3.783542 4.225,5.820834 1.45935,2.037291 3.75041,5.192447 5.09124,7.011458 1.34083,1.81901 4.48124,6.10526 6.97869,9.525 2.49745,3.419739 4.98427,6.81302 5.52627,7.540624 8.70435,11.685158 8.11885,10.499008 10.18689,20.637498 0.53429,2.61938 1.14734,5.45965 1.36234,6.31173 0.21499,0.85207 0.67881,2.93566 1.03071,4.6302 0.35191,1.69455 0.8285,3.91443 1.05909,4.93307 0.5913,2.61204 1.62499,7.47079 2.25159,10.58333 0.29295,1.45521 0.70302,3.30068 0.91126,4.10105 0.20825,0.80036 0.86581,3.77692 1.46125,6.61458 1.38492,6.60009 2.59603,12.27618 2.90737,13.62604 0.13426,0.58208 0.49195,2.24896 0.79485,3.70417 0.30291,1.45521 0.65889,3.12208 0.79106,3.70416 0.13218,0.58209 0.37151,1.71318 0.53186,2.51355 0.16035,0.80036 0.40259,1.93145 0.53831,2.51354 0.3529,1.51357 2.53107,11.77636 3.03237,14.2875 0.69207,3.46677 2.74258,12.98074 3.58335,16.62605 0.874,3.78941 0.94697,4.82776 0.42676,6.07279 -0.42025,1.0058 -0.37638,0.97521 -9.56516,6.66995 -3.92907,2.43502 -7.73907,4.81322 -8.46667,5.28488 -0.72761,0.47166 -3.10886,1.9583 -5.29167,3.30364 -2.18281,1.34534 -5.04031,3.12992 -6.35,3.96572 -1.30969,0.8358 -4.04812,2.5705 -6.08541,3.85487 -2.0373,1.28438 -5.13292,3.25327 -6.87917,4.3753 -3.30859,2.12591 -12.93426,8.2076 -16.13958,10.19731 -4.60215,2.8568 -6.99516,4.36676 -10.31654,6.50961 -2.99055,1.9294 -5.04977,2.9531 -5.69076,2.82903 -0.0728,-0.0141 -0.49826,-0.11316 -0.94555,-0.22016 z m -7.352961,-14.69829 c 0.08335,-0.2172 -0.153908,-1.259 -0.527239,-2.3151 -0.37333,-1.0561 -0.789472,-2.33691 -0.924759,-2.84623 -1.074678,-4.0459 -7.410058,-23.83842 -7.770906,-24.27728 l -0.273389,-0.3325 -18.66338,0.0679 -18.663381,0.0679 -0.1016,0.30486 c -0.05588,0.16768 0.946238,0.9346 2.226929,1.70427 2.185296,1.31333 10.072916,6.27934 13.308739,8.37912 0.800364,0.51937 1.871927,1.20658 2.38125,1.52713 0.509323,0.32055 2.310633,1.48625 4.002912,2.59043 2.688052,1.75391 12.974916,8.22054 15.97313,10.04119 0.582083,0.35347 1.935525,1.22577 3.007649,1.93846 5.620755,3.73635 5.769192,3.81397 6.024045,3.14983 z m 18.646551,-0.60009 c 4.68591,-3.12302 6.09216,-4.02638 7.64363,-4.91019 0.94589,-0.53884 2.96995,-1.77316 4.49792,-2.74295 1.52797,-0.96979 4.74265,-3.0064 7.14375,-4.5258 5.454,-3.45127 7.65537,-4.86792 14.27021,-9.18334 2.89978,-1.89177 6.54045,-4.24383 8.09039,-5.2268 1.62487,-1.03049 2.77157,-1.92671 2.70826,-2.11667 l -0.10979,-0.32945 -18.39878,-0.0679 -18.39878,-0.0679 -0.27438,0.33252 c -0.15092,0.18289 -0.87219,2.17799 -1.60283,4.43356 -2.61715,8.07942 -5.57627,17.36285 -6.11441,19.18229 -0.30129,1.01865 -0.73891,2.38787 -0.9725,3.04271 -0.23359,0.65484 -0.4831,1.63711 -0.55446,2.18281 l -0.12976,0.99219 0.35852,-0.003 c 0.19718,-0.002 1.02654,-0.44803 1.84301,-0.99219 z m -8.35854,-8.19926 c 0.81184,-2.58299 2.05532,-6.48229 2.7633,-8.6651 2.94445,-9.07821 3.68256,-11.54769 3.5527,-11.88609 l -0.13689,-0.35674 -4.46321,-0.10235 c -2.45477,-0.0563 -6.13054,-0.0565 -8.16838,-5.8e-4 l -3.705171,0.10175 -0.136999,0.35701 c -0.07535,0.19636 0.161074,1.22485 0.525385,2.28555 0.845005,2.46024 4.064635,12.67979 5.567245,17.67124 1.47644,4.90446 1.6401,5.29166 2.23675,5.29166 h 0.4892 z m -22.63696,-29.81977 0.323886,-0.39025 -0.530875,-1.66296 c -0.291982,-0.91463 -1.186421,-3.68702 -1.987642,-6.16087 -1.189038,-3.67128 -3.977596,-12.43041 -7.328252,-23.01875 -0.276299,-0.87313 -1.468739,-4.6236 -2.649867,-8.33438 -1.181128,-3.71078 -2.236517,-7.04453 -2.345308,-7.40833 -0.114273,-0.38213 -0.430334,-0.69584 -0.748447,-0.74287 l -0.550645,-0.0814 -2.433112,4.31474 c -2.396096,4.24911 -4.373541,7.69563 -6.953832,12.11996 -0.721382,1.23692 -1.75477,3.02286 -2.296418,3.96875 -7.213541,12.59708 -8.211943,14.39254 -11.181639,20.10833 -1.020692,1.96453 -2.257523,4.24229 -2.748512,5.06169 -1.688054,2.81715 -3.923007,2.53681 20.570055,2.58022 l 20.536722,0.0364 z m 31.99076,0.0287 c 0.16257,-0.19589 1.13363,-2.96409 2.15791,-6.15156 1.02428,-3.18747 2.16293,-6.68837 2.53034,-7.77977 0.3674,-1.09141 1.49647,-4.60375 2.50904,-7.80521 1.01256,-3.20146 2.36659,-7.36865 3.00894,-9.26042 2.83727,-8.35591 8.61297,-26.5439 8.61297,-27.12268 0,-0.31281 -1.25412,-2.60098 -4.05887,-7.40544 -1.40465,-2.40614 -16.74686,-29.23836 -19.7426,-34.52813 -0.98895,-1.74625 -2.60435,-4.60375 -3.58979,-6.35 -2.87181,-5.089022 -2.70531,-5.050758 -4.893,-1.124477 -3.422422,6.142267 -10.813931,19.160037 -17.464333,30.757817 -0.834446,1.4552 -2.796383,4.90802 -4.359859,7.67291 -1.563477,2.7649 -3.542272,6.24421 -4.397323,7.73182 -2.060441,3.58472 -2.410001,1.46425 3.065267,18.59422 0.488386,1.52797 1.502669,4.74266 2.253963,7.14375 3.351431,10.71099 11.423766,35.25838 11.724254,35.65261 l 0.252088,0.33073 h 11.047703 11.04771 z m 51.63435,-0.0739 0.29764,-0.29775 -0.95181,-1.81892 c -0.5235,-1.00041 -1.49092,-2.70234 -2.14983,-3.78207 -0.65891,-1.07972 -1.86234,-3.22285 -2.67429,-4.76249 -0.81195,-1.53965 -2.27972,-4.16858 -3.26172,-5.84207 -0.98199,-1.67349 -2.91557,-5.06677 -4.29684,-7.54062 -1.38127,-2.47386 -3.55156,-6.28386 -4.82286,-8.46667 -1.2713,-2.18281 -2.90704,-5.04031 -3.63497,-6.35 -1.21786,-2.19117 -3.75317,-6.58385 -4.61944,-8.00364 -0.19977,-0.32743 -0.59061,-0.59532 -0.86853,-0.59532 h -0.5053 l -2.51562,7.73907 c -1.38358,4.25648 -2.82896,8.75109 -3.21194,9.98802 -1.01085,3.26476 -7.69462,24.27835 -8.84382,27.80473 -0.32905,1.00971 -0.40259,1.62039 -0.23187,1.92545 l 0.25001,0.44675 20.87178,-0.0734 20.87177,-0.0734 z m -2.29729,-23.31632 c 0.13843,-0.22515 -2.57094,-13.82054 -3.76152,-18.87498 -0.43151,-1.8319 -0.90885,-3.97502 -1.06076,-4.7625 -0.61985,-3.21313 -2.57287,-12.26421 -5.01897,-23.25991 -0.72838,-3.27422 -1.64752,-7.5908 -2.04252,-9.59239 -0.395,-2.00159 -0.87973,-3.84706 -1.07718,-4.10104 l -0.35899,-0.46178 -0.36723,0.47304 c -0.20197,0.26018 -0.56337,1.27221 -0.80312,2.24896 -0.23974,0.97675 -0.95343,3.38326 -1.58597,5.34779 -1.55457,4.82809 -2.86238,9.07041 -3.87435,12.56771 -0.46318,1.60073 -0.93531,3.2271 -1.04918,3.61415 l -0.20702,0.70374 0.63148,1.36299 c 0.66903,1.44404 5.03958,9.20614 8.04906,14.29516 1.93486,3.27183 8.51471,14.8215 10.17449,17.85937 1.36727,2.5025 1.98359,3.17855 2.35178,2.57969 z M 45.412034,182.36406 c 0.197402,-0.25466 1.153077,-1.89177 2.123723,-3.63802 0.970646,-1.74625 1.96857,-3.47266 2.217609,-3.83646 1.162918,-1.69882 15.8633,-27.64659 15.8633,-28.00045 0,-0.22099 -0.471032,-1.89919 -1.046738,-3.72932 -1.043371,-3.31681 -2.297868,-7.42118 -3.726192,-12.19106 -0.413969,-1.38245 -1.14652,-3.70417 -1.627891,-5.15937 l -0.875221,-2.64584 h -0.517531 -0.517532 l -0.335913,1.16022 c -0.184753,0.63811 -0.583181,2.42405 -0.885398,3.96875 -0.302216,1.54469 -0.719835,3.58244 -0.928043,4.52832 -2.278407,10.35078 -4.512743,20.55122 -5.042095,23.01875 -1.418266,6.61112 -5.664113,26.749 -5.664113,26.86465 0,0.304 0.637415,0.0786 0.962035,-0.34017 z m 26.904533,-46.20138 c 0.225918,-0.34479 2.043568,-3.47018 4.039223,-6.94531 1.995654,-3.47513 4.603742,-7.98529 5.795751,-10.02258 1.192009,-2.03729 3.004944,-5.19245 4.028744,-7.01146 2.324282,-4.1296 9.158353,-15.986615 12.352408,-21.431246 l 2.405847,-4.101041 0.0857,-10.715625 c 0.0471,-5.893594 0.004,-13.483828 -0.0958,-16.867187 l -0.18144,-6.151563 -0.43342,0.0055 c -0.23837,0.003 -0.933866,0.747168 -1.545532,1.653645 -2.534017,3.755364 -3.331925,4.862833 -4.04685,5.616891 -0.413907,0.436562 -1.394324,1.686719 -2.178706,2.778125 -0.784381,1.091406 -2.719962,3.770312 -4.301289,5.953125 -1.581327,2.182812 -3.598061,4.974259 -4.48163,6.203216 -0.883568,1.228956 -2.049543,2.8363 -2.591055,3.571875 -0.541511,0.735574 -1.369448,1.87319 -1.83986,2.528033 -0.470411,0.654844 -2.5872,3.538651 -4.703975,6.40846 -2.116775,2.86981 -4.443994,6.055964 -5.171599,7.080342 -1.570453,2.211009 -3.026421,4.200205 -5.774906,7.88988 -2.453795,3.29407 -2.466135,2.1645 0.114439,10.47545 1.179608,3.79903 2.317546,7.50263 2.528751,8.23024 0.211206,0.7276 0.723054,2.39448 1.137442,3.70417 0.414387,1.30968 1.182462,3.81 1.706833,5.55624 1.767869,5.88733 1.89365,6.21771 2.36713,6.21771 0.205146,0 0.557836,-0.2821 0.783754,-0.6269 z m 68.150453,-4.10399 c 2.68734,-8.60238 4.32255,-13.92297 5.31851,-17.30518 0.56624,-1.92292 1.39317,-4.61743 1.83762,-5.98779 0.44446,-1.37037 0.8081,-2.70044 0.8081,-2.95571 0,-0.48123 -2.29683,-3.75505 -9.91459,-14.131884 -2.45705,-3.346979 -5.89506,-8.049948 -7.64001,-10.451042 -1.74495,-2.401093 -3.49088,-4.782343 -3.87984,-5.291666 -0.38896,-0.509323 -2.35742,-3.188229 -4.37436,-5.953125 -2.01694,-2.764896 -4.33569,-5.860521 -5.15277,-6.879167 -0.81708,-1.018645 -1.88468,-2.447395 -2.37245,-3.175 -2.12541,-3.170484 -4.86505,-6.746874 -5.16834,-6.746874 -0.52356,0 -0.53651,0.356506 -0.62502,17.205169 l -0.0841,16.014545 6.73777,11.766705 c 3.70577,6.471689 8.25746,14.386079 10.11487,17.587539 1.85741,3.20146 5.22288,9.03552 7.47882,12.96458 2.25594,3.92906 4.28272,7.35169 4.50396,7.60584 l 0.40224,0.46208 0.3593,-0.29819 c 0.19761,-0.164 0.94025,-2.15788 1.65031,-4.43083 z"
         id="path24" />
    </g>
  </g>
</svg>
